{"glyphs":{"0":{"ha":782,"x_min":47,"x_max":735,"o":"m 200 764 l 47 611 l 47 0 l 582 0 l 735 153 l 735 764 l 200 764 m 506 283 l 458 229 l 276 229 l 276 481 l 324 535 l 506 535 l 506 283 z "},"1":{"ha":629,"x_min":47,"x_max":582,"o":"m 47 0 l 47 228 l 200 228 l 200 535 l 47 535 l 47 764 l 429 764 l 429 229 l 582 229 l 582 0 l 47 0 z "},"2":{"ha":782,"x_min":47,"x_max":735,"o":"m 735 0 l 47 0 l 47 497 l 506 497 l 506 535 l 108 535 l 108 764 l 735 764 l 735 268 l 276 268 l 276 229 l 735 229 l 735 0 z "},"3":{"ha":743,"x_min":47,"x_max":696,"o":"m 696 0 l 47 0 l 47 229 l 467 229 l 467 268 l 47 268 l 47 497 l 467 497 l 467 535 l 47 535 l 47 764 l 696 764 l 696 0 z "},"4":{"ha":782,"x_min":47,"x_max":735,"o":"m 735 0 l 735 764 l 506 764 l 506 458 l 276 458 l 276 764 l 47 764 l 47 229 l 506 229 l 506 0 l 735 0 z "},"5":{"ha":782,"x_min":47,"x_max":735,"o":"m 47 0 l 47 229 l 506 229 l 506 268 l 47 268 l 47 764 l 674 764 l 674 535 l 276 535 l 276 497 l 735 497 l 735 0 l 47 0 z "},"6":{"ha":782,"x_min":47,"x_max":735,"o":"m 735 0 l 47 0 l 47 764 l 735 764 l 735 535 l 276 535 l 276 497 l 735 497 l 735 0 m 506 229 l 506 268 l 276 268 l 276 229 l 506 229 z "},"7":{"ha":706,"x_min":47,"x_max":658,"o":"m 658 0 l 429 0 l 429 535 l 47 535 l 47 764 l 658 764 l 658 0 z "},"8":{"ha":782,"x_min":47,"x_max":735,"o":"m 735 0 l 47 0 l 47 764 l 735 764 l 735 0 m 506 497 l 506 535 l 276 535 l 276 497 l 506 497 m 506 229 l 506 268 l 276 268 l 276 229 l 506 229 z "},"9":{"ha":782,"x_min":47,"x_max":735,"o":"m 735 0 l 47 0 l 47 229 l 506 229 l 506 268 l 47 268 l 47 764 l 735 764 l 735 0 m 506 497 l 506 535 l 276 535 l 276 497 l 506 497 z "}," ":{"ha":313,"x_min":0,"x_max":0,"o":""}," ":{"ha":313,"x_min":0,"x_max":0,"o":""},"!":{"ha":324,"x_min":47,"x_max":276,"o":"m 276 268 l 276 764 l 47 764 l 47 268 l 276 268 m 276 0 l 276 229 l 47 229 l 47 0 l 276 0 z "},"\"":{"ha":583,"x_min":47,"x_max":536,"o":"m 536 353 l 536 764 l 321 764 l 321 353 l 536 353 m 263 353 l 263 764 l 47 764 l 47 353 l 263 353 z "},"#":{"ha":664,"x_min":47,"x_max":617,"o":"m 617 318 l 531 318 l 531 233 l 363 233 l 363 318 l 301 318 l 301 233 l 133 233 l 133 318 l 47 318 l 47 474 l 133 474 l 133 524 l 47 524 l 47 679 l 133 679 l 133 764 l 301 764 l 301 679 l 363 679 l 363 764 l 531 764 l 531 679 l 617 679 l 617 524 l 531 524 l 531 474 l 617 474 l 617 318 m 301 524 l 301 474 l 363 474 l 363 524 l 301 524 z "},"$":{"ha":858,"x_min":47,"x_max":811,"o":"m 811 0 l 811 497 l 276 497 l 276 535 l 811 535 l 811 764 l 540 764 l 540 917 l 311 917 l 311 764 l 47 764 l 47 268 l 582 268 l 582 229 l 47 229 l 47 0 l 318 0 l 318 -153 l 547 -153 l 547 0 l 811 0 z "},"%":{"ha":781,"x_min":47,"x_max":733,"o":"m 504 764 l 504 467 l 733 467 l 733 85 l 504 85 l 504 0 l 275 0 l 275 297 l 47 297 l 47 679 l 275 679 l 275 764 l 504 764 m 618 199 l 618 351 l 504 351 l 504 199 l 618 199 m 163 564 l 163 411 l 275 411 l 275 564 l 163 564 z "},"&":{"ha":785,"x_min":47,"x_max":738,"o":"m 701 497 l 599 497 l 599 535 l 738 535 l 738 764 l 599 764 l 599 897 l 371 897 l 371 764 l 47 764 l 47 0 l 371 0 l 371 -133 l 599 -133 l 599 0 l 738 0 l 738 229 l 599 229 l 599 268 l 701 268 l 701 497 m 276 229 l 276 268 l 371 268 l 371 229 l 276 229 m 276 535 l 371 535 l 371 497 l 276 497 l 276 535 z "},"'":{"ha":324,"x_min":47,"x_max":276,"o":"m 276 353 l 276 764 l 47 764 l 47 353 l 276 353 z "},"(":{"ha":476,"x_min":47,"x_max":429,"o":"m 429 0 l 429 229 l 276 229 l 276 535 l 429 535 l 429 764 l 47 764 l 47 0 l 429 0 z "},")":{"ha":476,"x_min":47,"x_max":429,"o":"m 47 0 l 47 229 l 200 229 l 200 535 l 47 535 l 47 764 l 429 764 l 429 0 l 47 0 z "},"*":{"ha":324,"x_min":47,"x_max":276,"o":"m 47 661 l 47 890 l 276 890 l 276 661 l 47 661 z "},"+":{"ha":549,"x_min":47,"x_max":501,"o":"m 389 154 l 160 154 l 160 268 l 47 268 l 47 497 l 160 497 l 160 608 l 389 608 l 389 497 l 501 497 l 501 268 l 389 268 l 389 154 z "},",":{"ha":324,"x_min":47,"x_max":276,"o":"m 276 -182 l 276 229 l 47 229 l 47 -182 l 276 -182 z "},"-":{"ha":436,"x_min":47,"x_max":389,"o":"m 389 497 l 47 497 l 47 268 l 389 268 l 389 497 z "},".":{"ha":324,"x_min":47,"x_max":276,"o":"m 276 0 l 276 229 l 47 229 l 47 0 l 276 0 z "},"/":{"ha":483,"x_min":47,"x_max":436,"o":"m 47 0 l 47 497 l 207 497 l 207 764 l 436 764 l 436 268 l 276 268 l 276 0 l 47 0 z "},":":{"ha":324,"x_min":47,"x_max":276,"o":"m 276 0 l 276 229 l 47 229 l 47 0 l 276 0 m 276 268 l 276 497 l 47 497 l 47 268 l 276 268 z "},";":{"ha":324,"x_min":47,"x_max":276,"o":"m 276 -182 l 276 229 l 47 229 l 47 -182 l 276 -182 m 276 268 l 276 497 l 47 497 l 47 268 l 276 268 z "},"<":{"ha":692,"x_min":47,"x_max":644,"o":"m 644 0 l 644 229 l 454 229 l 454 535 l 644 535 l 644 764 l 225 764 l 225 497 l 47 497 l 47 268 l 225 268 l 225 0 l 644 0 z "},"=":{"ha":476,"x_min":47,"x_max":429,"o":"m 429 363 l 429 135 l 47 135 l 47 363 l 429 363 m 429 631 l 429 403 l 47 403 l 47 631 l 429 631 z "},">":{"ha":692,"x_min":47,"x_max":644,"o":"m 644 268 l 644 497 l 468 497 l 468 764 l 47 764 l 47 535 l 239 535 l 239 229 l 47 229 l 47 0 l 468 0 l 468 268 l 644 268 z "},"?":{"ha":782,"x_min":47,"x_max":735,"o":"m 735 268 l 183 268 l 183 497 l 506 497 l 506 535 l 47 535 l 47 764 l 735 764 l 735 268 m 413 0 l 183 0 l 183 229 l 413 229 l 413 0 z "},"@":{"ha":915,"x_min":46,"x_max":867,"o":"m 342 251 l 571 251 l 571 274 l 867 274 l 867 794 l 46 794 l 46 -33 l 811 -33 l 811 196 l 275 196 l 275 565 l 638 565 l 638 489 l 571 489 l 571 511 l 342 511 l 342 251 m 485 338 l 428 338 l 428 424 l 485 424 l 485 338 z "},"A":{"ha":782,"x_min":47,"x_max":735,"o":"m 506 0 l 735 0 l 735 764 l 47 764 l 47 535 l 506 535 l 506 458 l 47 458 l 47 0 l 276 0 l 276 229 l 506 229 l 506 0 z "},"B":{"ha":782,"x_min":47,"x_max":735,"o":"m 735 0 l 735 332 l 596 382 l 596 386 l 735 432 l 735 764 l 47 764 l 47 0 l 735 0 m 276 228 l 276 268 l 450 268 l 506 240 l 506 228 l 276 228 m 276 536 l 506 536 l 506 525 l 450 497 l 276 497 l 276 536 z "},"C":{"ha":782,"x_min":47,"x_max":735,"o":"m 47 0 l 735 0 l 735 229 l 276 229 l 276 535 l 506 535 l 506 446 l 735 446 l 735 764 l 47 764 l 47 0 z "},"D":{"ha":782,"x_min":47,"x_max":735,"o":"m 735 764 l 47 764 l 47 0 l 582 0 l 735 153 l 735 764 m 506 279 l 458 229 l 276 229 l 276 535 l 506 535 l 506 279 z "},"E":{"ha":782,"x_min":47,"x_max":735,"o":"m 276 229 l 735 229 l 735 0 l 47 0 l 47 764 l 735 764 l 735 306 l 506 306 l 506 535 l 276 535 l 276 229 z "},"F":{"ha":706,"x_min":47,"x_max":658,"o":"m 47 0 l 276 0 l 276 268 l 658 268 l 658 497 l 276 497 l 276 535 l 658 535 l 658 764 l 47 764 l 47 0 z "},"G":{"ha":782,"x_min":47,"x_max":735,"o":"m 47 764 l 47 0 l 735 0 l 735 475 l 506 475 l 506 229 l 276 229 l 276 535 l 735 535 l 735 764 l 47 764 z "},"H":{"ha":782,"x_min":47,"x_max":735,"o":"m 735 0 l 506 0 l 506 268 l 276 268 l 276 0 l 47 0 l 47 764 l 276 764 l 276 497 l 506 497 l 506 764 l 735 764 l 735 0 z "},"I":{"ha":446,"x_min":47,"x_max":399,"o":"m 399 0 l 169 0 l 169 535 l 47 535 l 47 764 l 399 764 l 399 0 z "},"J":{"ha":706,"x_min":47,"x_max":658,"o":"m 658 0 l 658 764 l 429 764 l 429 229 l 47 229 l 47 0 l 658 0 z "},"K":{"ha":782,"x_min":47,"x_max":735,"o":"m 506 525 l 450 497 l 276 497 l 276 764 l 47 764 l 47 0 l 276 0 l 276 268 l 450 268 l 506 240 l 506 0 l 735 0 l 735 332 l 596 382 l 596 386 l 735 432 l 735 764 l 506 764 l 506 525 z "},"L":{"ha":706,"x_min":47,"x_max":658,"o":"m 47 764 l 276 764 l 276 229 l 658 229 l 658 0 l 47 0 l 47 764 z "},"M":{"ha":1011,"x_min":47,"x_max":964,"o":"m 735 485 l 735 0 l 964 0 l 964 611 l 811 764 l 47 764 l 47 0 l 276 0 l 276 535 l 392 535 l 392 0 l 621 0 l 621 535 l 688 535 l 735 485 z "},"N":{"ha":782,"x_min":47,"x_max":735,"o":"m 506 485 l 506 0 l 735 0 l 735 611 l 582 764 l 47 764 l 47 0 l 276 0 l 276 535 l 458 535 l 506 485 z "},"O":{"ha":782,"x_min":47,"x_max":735,"o":"m 735 0 l 47 0 l 47 764 l 735 764 l 735 0 m 506 229 l 506 535 l 276 535 l 276 229 l 506 229 z "},"P":{"ha":782,"x_min":47,"x_max":735,"o":"m 735 764 l 47 764 l 47 535 l 506 535 l 506 458 l 47 458 l 47 0 l 276 0 l 276 229 l 735 229 l 735 764 z "},"Q":{"ha":782,"x_min":47,"x_max":735,"o":"m 582 -131 l 353 -131 l 353 229 l 506 229 l 506 535 l 276 535 l 276 0 l 47 0 l 47 764 l 735 764 l 735 0 l 582 0 l 582 -131 z "},"R":{"ha":782,"x_min":47,"x_max":735,"o":"m 735 0 l 735 293 l 596 343 l 596 347 l 735 393 l 735 764 l 47 764 l 47 536 l 506 536 l 506 486 l 450 458 l 47 458 l 47 0 l 276 0 l 276 229 l 450 229 l 506 201 l 506 0 l 735 0 z "},"S":{"ha":782,"x_min":47,"x_max":735,"o":"m 506 229 l 506 268 l 47 268 l 47 764 l 735 764 l 735 535 l 276 535 l 276 497 l 735 497 l 735 0 l 47 0 l 47 229 l 506 229 z "},"T":{"ha":717,"x_min":47,"x_max":669,"o":"m 669 535 l 478 535 l 478 0 l 250 0 l 250 535 l 47 535 l 47 764 l 669 764 l 669 535 z "},"U":{"ha":782,"x_min":47,"x_max":735,"o":"m 276 283 l 276 764 l 47 764 l 47 153 l 200 0 l 735 0 l 735 764 l 506 764 l 506 229 l 324 229 l 276 283 z "},"V":{"ha":782,"x_min":47,"x_max":735,"o":"m 506 279 l 390 161 l 276 279 l 276 764 l 47 764 l 47 156 l 203 0 l 579 0 l 735 156 l 735 764 l 506 764 l 506 279 z "},"W":{"ha":1011,"x_min":47,"x_max":964,"o":"m 276 283 l 276 764 l 47 764 l 47 153 l 200 0 l 964 0 l 964 764 l 735 764 l 735 229 l 619 229 l 619 764 l 390 764 l 390 229 l 324 229 l 276 283 z "},"X":{"ha":782,"x_min":47,"x_max":735,"o":"m 506 764 l 506 525 l 450 497 l 332 497 l 276 525 l 276 764 l 47 764 l 47 432 l 186 386 l 186 382 l 47 332 l 47 0 l 276 0 l 276 240 l 332 268 l 450 268 l 506 240 l 506 0 l 735 0 l 735 332 l 596 382 l 596 386 l 735 432 l 735 764 l 506 764 z "},"Y":{"ha":782,"x_min":47,"x_max":735,"o":"m 506 0 l 276 0 l 276 229 l 47 229 l 47 764 l 276 764 l 276 458 l 506 458 l 506 764 l 735 764 l 735 229 l 506 229 l 506 0 z "},"Z":{"ha":782,"x_min":47,"x_max":735,"o":"m 276 229 l 276 268 l 735 268 l 735 764 l 47 764 l 47 535 l 506 535 l 506 497 l 47 497 l 47 0 l 735 0 l 735 229 l 276 229 z "},"[":{"ha":782,"x_min":47,"x_max":735,"o":"m 47 0 l 735 0 l 735 229 l 276 229 l 276 306 l 735 306 l 735 764 l 506 764 l 506 535 l 276 535 l 276 764 l 47 764 l 47 0 z "},"\\":{"ha":483,"x_min":47,"x_max":436,"o":"m 436 0 l 436 497 l 276 497 l 276 764 l 47 764 l 47 268 l 207 268 l 207 0 l 436 0 z "},"]":{"ha":706,"x_min":47,"x_max":658,"o":"m 47 0 l 47 764 l 658 764 l 658 535 l 276 535 l 276 0 l 47 0 z "},"^":{"ha":782,"x_min":47,"x_max":735,"o":"m 200 764 l 47 611 l 47 0 l 429 0 l 429 229 l 276 229 l 276 485 l 324 535 l 506 535 l 506 0 l 735 0 l 735 764 l 200 764 z "},"_":{"ha":631,"x_min":47,"x_max":583,"o":"m 583 0 l 583 229 l 47 229 l 47 0 l 583 0 z "},"`":{"ha":324,"x_min":47,"x_max":276,"o":"m 47 851 l 276 851 l 276 1081 l 47 1081 l 47 851 z "},"a":{"ha":782,"x_min":47,"x_max":735,"o":"m 429 0 l 429 229 l 276 229 l 276 535 l 506 535 l 506 0 l 735 0 l 735 764 l 47 764 l 47 0 l 429 0 z "},"b":{"ha":706,"x_min":47,"x_max":658,"o":"m 658 0 l 47 0 l 47 229 l 429 229 l 429 535 l 47 535 l 47 946 l 276 946 l 276 764 l 658 764 l 658 0 z "},"c":{"ha":706,"x_min":47,"x_max":658,"o":"m 47 0 l 658 0 l 658 229 l 276 229 l 276 535 l 658 535 l 658 764 l 47 764 l 47 0 z "},"d":{"ha":706,"x_min":47,"x_max":658,"o":"m 47 0 l 47 764 l 429 764 l 429 946 l 658 946 l 658 535 l 276 535 l 276 229 l 658 229 l 658 0 l 47 0 z "},"e":{"ha":782,"x_min":47,"x_max":735,"o":"m 735 0 l 735 229 l 276 229 l 276 535 l 506 535 l 506 475 l 426 475 l 426 289 l 735 289 l 735 764 l 47 764 l 47 0 l 735 0 z "},"f":{"ha":706,"x_min":47,"x_max":658,"o":"m 47 0 l 276 0 l 276 226 l 658 226 l 658 458 l 276 458 l 276 535 l 658 535 l 658 764 l 47 764 l 47 0 z "},"g":{"ha":782,"x_min":47,"x_max":735,"o":"m 47 764 l 47 0 l 735 0 l 735 475 l 426 475 l 426 289 l 506 289 l 506 229 l 276 229 l 276 535 l 735 535 l 735 764 l 47 764 z "},"h":{"ha":782,"x_min":47,"x_max":735,"o":"m 276 764 l 276 946 l 47 946 l 47 0 l 276 0 l 276 535 l 506 535 l 506 0 l 735 0 l 735 764 l 276 764 z "},"i":{"ha":324,"x_min":47,"x_max":276,"o":"m 276 0 l 47 0 l 47 764 l 276 764 l 276 0 z "},"j":{"ha":706,"x_min":47,"x_max":658,"o":"m 658 0 l 47 0 l 47 229 l 429 229 l 429 535 l 258 535 l 258 764 l 658 764 l 658 0 z "},"k":{"ha":782,"x_min":47,"x_max":735,"o":"m 506 525 l 450 497 l 276 497 l 276 946 l 47 946 l 47 0 l 276 0 l 276 268 l 450 268 l 506 240 l 506 0 l 735 0 l 735 332 l 596 382 l 596 386 l 735 432 l 735 764 l 506 764 l 506 525 z "},"l":{"ha":463,"x_min":47,"x_max":415,"o":"m 276 946 l 47 946 l 47 0 l 415 0 l 415 229 l 276 229 l 276 946 z "},"m":{"ha":1011,"x_min":47,"x_max":964,"o":"m 47 764 l 964 764 l 964 0 l 735 0 l 735 535 l 621 535 l 621 0 l 392 0 l 392 535 l 276 535 l 276 0 l 47 0 l 47 764 z "},"n":{"ha":782,"x_min":47,"x_max":735,"o":"m 735 0 l 506 0 l 506 535 l 276 535 l 276 0 l 47 0 l 47 764 l 735 764 l 735 0 z "},"o":{"ha":782,"x_min":47,"x_max":735,"o":"m 735 0 l 47 0 l 47 764 l 735 764 l 735 0 m 506 229 l 506 535 l 276 535 l 276 229 l 506 229 z "},"p":{"ha":706,"x_min":47,"x_max":658,"o":"m 658 764 l 47 764 l 47 535 l 429 535 l 429 229 l 47 229 l 47 -182 l 276 -182 l 276 0 l 658 0 l 658 764 z "},"q":{"ha":706,"x_min":47,"x_max":658,"o":"m 47 764 l 47 0 l 429 0 l 429 -182 l 658 -182 l 658 229 l 276 229 l 276 535 l 658 535 l 658 764 l 47 764 z "},"r":{"ha":742,"x_min":47,"x_max":694,"o":"m 47 0 l 276 0 l 276 535 l 465 535 l 465 354 l 694 354 l 694 764 l 47 764 l 47 0 z "},"s":{"ha":706,"x_min":47,"x_max":658,"o":"m 658 0 l 429 0 l 429 268 l 47 268 l 47 764 l 276 764 l 276 497 l 658 497 l 658 0 z "},"t":{"ha":649,"x_min":47,"x_max":601,"o":"m 276 946 l 276 764 l 601 764 l 601 535 l 276 535 l 276 229 l 601 229 l 601 0 l 47 0 l 47 946 l 276 946 z "},"u":{"ha":782,"x_min":47,"x_max":735,"o":"m 47 764 l 47 0 l 735 0 l 735 764 l 506 764 l 506 229 l 276 229 l 276 764 l 47 764 z "},"v":{"ha":782,"x_min":47,"x_max":735,"o":"m 506 279 l 390 161 l 276 279 l 276 764 l 47 764 l 47 156 l 203 0 l 579 0 l 735 156 l 735 764 l 506 764 l 506 279 z "},"w":{"ha":1011,"x_min":47,"x_max":964,"o":"m 964 0 l 47 0 l 47 764 l 276 764 l 276 229 l 392 229 l 392 764 l 621 764 l 621 229 l 735 229 l 735 764 l 964 764 l 964 0 z "},"x":{"ha":782,"x_min":47,"x_max":735,"o":"m 506 764 l 506 525 l 450 497 l 332 497 l 276 525 l 276 764 l 47 764 l 47 432 l 186 386 l 186 382 l 47 332 l 47 0 l 276 0 l 276 240 l 332 268 l 450 268 l 506 240 l 506 0 l 735 0 l 735 332 l 596 382 l 596 386 l 735 432 l 735 764 l 506 764 z "},"y":{"ha":782,"x_min":47,"x_max":735,"o":"m 735 0 l 47 0 l 47 229 l 506 229 l 506 306 l 47 306 l 47 764 l 276 764 l 276 535 l 506 535 l 506 764 l 735 764 l 735 0 z "},"z":{"ha":706,"x_min":47,"x_max":658,"o":"m 47 0 l 276 0 l 276 268 l 658 268 l 658 764 l 429 764 l 429 497 l 47 497 l 47 0 z "},"{":{"ha":743,"x_min":47,"x_max":696,"o":"m 47 0 l 696 0 l 696 229 l 276 229 l 276 268 l 696 268 l 696 497 l 276 497 l 276 535 l 696 535 l 696 764 l 47 764 l 47 0 z "},"|":{"ha":324,"x_min":47,"x_max":276,"o":"m 276 -183 l 47 -183 l 47 946 l 276 946 l 276 -183 z "},"}":{"ha":782,"x_min":47,"x_max":735,"o":"m 735 0 l 47 0 l 47 764 l 582 764 l 735 611 l 735 0 m 506 485 l 458 535 l 276 535 l 276 229 l 506 229 l 506 485 z "},"~":{"ha":782,"x_min":47,"x_max":735,"o":"m 582 -182 l 353 -182 l 353 229 l 506 229 l 506 535 l 276 535 l 276 0 l 47 0 l 47 764 l 735 764 l 735 0 l 582 0 l 582 -182 z "},"":{"ha":214,"x_min":0,"x_max":0,"o":""},"€":{"ha":818,"x_min":47,"x_max":771,"o":"m 542 363 l 542 229 l 771 229 l 771 0 l 160 0 l 160 135 l 47 135 l 47 363 l 160 363 l 160 403 l 47 403 l 47 631 l 160 631 l 160 764 l 771 764 l 771 535 l 542 535 l 542 403 l 389 403 l 389 363 l 542 363 z "},"‚":{"ha":324,"x_min":47,"x_max":276,"o":"m 276 -182 l 276 229 l 47 229 l 47 -182 l 276 -182 z "},"ƒ":{"ha":706,"x_min":47,"x_max":658,"o":"m 47 611 l 200 611 l 200 764 l 658 764 l 658 535 l 276 535 l 276 458 l 658 458 l 658 226 l 276 226 l 276 0 l 47 0 l 47 611 z "},"„":{"ha":583,"x_min":47,"x_max":536,"o":"m 536 -182 l 321 -182 l 321 229 l 536 229 l 536 -182 m 263 -182 l 47 -182 l 47 229 l 263 229 l 263 -182 z "},"…":{"ha":899,"x_min":47,"x_max":851,"o":"m 564 0 l 335 0 l 335 229 l 564 229 l 564 0 m 276 0 l 47 0 l 47 229 l 276 229 l 276 0 m 851 0 l 622 0 l 622 229 l 851 229 l 851 0 z "},"†":{"ha":699,"x_min":47,"x_max":651,"o":"m 464 410 l 464 0 l 235 0 l 235 410 l 47 410 l 47 639 l 235 639 l 235 764 l 464 764 l 464 639 l 651 639 l 651 410 l 464 410 z "},"‡":{"ha":699,"x_min":47,"x_max":651,"o":"m 651 125 l 464 125 l 464 0 l 235 0 l 235 125 l 47 125 l 47 354 l 235 354 l 235 410 l 47 410 l 47 639 l 235 639 l 235 764 l 464 764 l 464 639 l 651 639 l 651 410 l 464 410 l 464 354 l 651 354 l 651 125 z "},"ˆ":{"ha":621,"x_min":47,"x_max":574,"o":"m 47 851 l 274 851 l 310 992 l 347 851 l 574 851 l 515 1081 l 106 1081 l 47 851 z "},"‰":{"ha":1010,"x_min":47,"x_max":963,"o":"m 963 85 l 504 85 l 504 0 l 275 0 l 275 297 l 47 297 l 47 679 l 275 679 l 275 764 l 504 764 l 504 467 l 963 467 l 963 85 m 847 199 l 847 351 l 733 351 l 733 199 l 847 199 m 618 199 l 618 351 l 504 351 l 504 199 l 618 199 m 163 564 l 163 411 l 275 411 l 275 564 l 163 564 z "},"Š":{"ha":782,"x_min":47,"x_max":735,"o":"m 506 268 l 506 229 l 47 229 l 47 0 l 735 0 l 735 497 l 276 497 l 276 535 l 735 535 l 735 764 l 47 764 l 47 268 l 506 268 m 356 1081 l 129 1081 l 188 851 l 597 851 l 656 1081 l 429 1081 l 392 940 l 356 1081 z "},"‹":{"ha":324,"x_min":47,"x_max":276,"o":"m 276 419 l 136 383 l 276 346 l 276 119 l 47 178 l 47 588 l 276 646 l 276 419 z "},"Œ":{"ha":1240,"x_min":47,"x_max":1193,"o":"m 1193 0 l 47 0 l 47 764 l 1193 764 l 1193 289 l 964 289 l 964 535 l 735 535 l 735 229 l 1193 229 l 1193 0 m 276 535 l 276 229 l 506 229 l 506 535 l 276 535 z "},"Ž":{"ha":782,"x_min":47,"x_max":735,"o":"m 276 268 l 276 229 l 735 229 l 735 0 l 47 0 l 47 497 l 506 497 l 506 535 l 47 535 l 47 764 l 735 764 l 735 268 l 276 268 m 426 1081 l 653 1081 l 594 851 l 185 851 l 126 1081 l 353 1081 l 390 940 l 426 1081 z "},"‘":{"ha":324,"x_min":47,"x_max":276,"o":"m 276 353 l 276 764 l 47 764 l 47 353 l 276 353 z "},"’":{"ha":324,"x_min":47,"x_max":276,"o":"m 276 353 l 276 764 l 47 764 l 47 353 l 276 353 z "},"“":{"ha":583,"x_min":47,"x_max":536,"o":"m 536 353 l 536 764 l 321 764 l 321 353 l 536 353 m 263 353 l 263 764 l 47 764 l 47 353 l 263 353 z "},"”":{"ha":583,"x_min":47,"x_max":536,"o":"m 536 353 l 536 764 l 321 764 l 321 353 l 536 353 m 263 353 l 263 764 l 47 764 l 47 353 l 263 353 z "},"•":{"ha":324,"x_min":47,"x_max":276,"o":"m 276 229 l 276 535 l 47 535 l 47 229 l 276 229 z "},"–":{"ha":438,"x_min":47,"x_max":390,"o":"m 390 497 l 47 497 l 47 268 l 390 268 l 390 497 z "},"—":{"ha":504,"x_min":47,"x_max":457,"o":"m 457 268 l 47 268 l 47 497 l 457 497 l 457 268 z "},"˜":{"ha":621,"x_min":47,"x_max":574,"o":"m 47 851 l 47 1081 l 574 1081 l 574 851 l 47 851 z "},"™":{"ha":478,"x_min":29,"x_max":431,"o":"m 100 856 l 29 856 l 29 890 l 200 890 l 200 856 l 131 856 l 131 683 l 100 683 l 100 856 m 256 892 l 269 892 q 279 883 276 892 l 333 724 l 383 883 q 398 894 386 892 q 419 895 410 896 q 431 894 429 894 l 431 683 l 404 683 l 404 826 q 397 820 401 826 q 392 811 392 814 q 378 770 388 800 q 358 714 369 740 q 347 686 350 690 q 331 682 344 682 q 308 701 317 682 q 292 744 300 719 q 278 795 285 769 q 260 836 271 821 l 260 683 l 231 683 l 231 892 l 256 892 z "},"š":{"ha":706,"x_min":47,"x_max":658,"o":"m 390 1081 l 617 1081 l 558 851 l 149 851 l 90 1081 l 317 1081 l 354 940 l 390 1081 m 658 0 l 429 0 l 429 268 l 47 268 l 47 764 l 276 764 l 276 497 l 658 497 l 658 0 z "},"›":{"ha":324,"x_min":47,"x_max":276,"o":"m 47 419 l 188 383 l 47 346 l 47 119 l 276 178 l 276 588 l 47 646 l 47 419 z "},"œ":{"ha":1240,"x_min":47,"x_max":1193,"o":"m 1193 0 l 47 0 l 47 764 l 1193 764 l 1193 289 l 889 289 l 889 475 l 964 475 l 964 535 l 735 535 l 735 229 l 1193 229 l 1193 0 m 276 535 l 276 229 l 506 229 l 506 535 l 276 535 z "},"ž":{"ha":706,"x_min":47,"x_max":658,"o":"m 315 1081 l 89 1081 l 147 851 l 557 851 l 615 1081 l 389 1081 l 351 940 l 315 1081 m 47 0 l 276 0 l 276 268 l 658 268 l 658 764 l 429 764 l 429 497 l 47 497 l 47 0 z "},"Ÿ":{"ha":782,"x_min":47,"x_max":735,"o":"m 425 851 l 425 1081 l 654 1081 l 654 851 l 425 851 m 128 851 l 128 1081 l 357 1081 l 357 851 l 128 851 m 506 0 l 276 0 l 276 229 l 47 229 l 47 764 l 276 764 l 276 458 l 506 458 l 506 764 l 735 764 l 735 229 l 506 229 l 506 0 z "},"¡":{"ha":324,"x_min":47,"x_max":276,"o":"m 276 496 l 276 0 l 47 0 l 47 496 l 276 496 m 276 764 l 276 535 l 47 535 l 47 764 l 276 764 z "},"¢":{"ha":765,"x_min":47,"x_max":718,"o":"m 718 90 l 513 90 l 513 0 l 283 0 l 283 90 l 47 90 l 47 674 l 283 674 l 283 764 l 513 764 l 513 674 l 718 674 l 718 444 l 276 444 l 276 319 l 718 319 l 718 90 z "},"£":{"ha":846,"x_min":47,"x_max":799,"o":"m 799 0 l 47 0 l 47 229 l 163 229 l 163 268 l 47 268 l 47 497 l 163 497 l 163 764 l 582 764 l 582 535 l 392 535 l 392 497 l 690 497 l 690 268 l 392 268 l 392 229 l 799 229 l 799 0 z "},"¤":{"ha":782,"x_min":47,"x_max":735,"o":"m 506 0 l 506 193 l 276 193 l 276 0 l 47 0 l 47 342 l 199 342 l 199 422 l 47 422 l 47 764 l 276 764 l 276 576 l 506 576 l 506 764 l 735 764 l 735 422 l 583 422 l 583 342 l 735 342 l 735 0 l 506 0 m 468 307 l 468 461 l 314 461 l 314 307 l 468 307 z "},"¥":{"ha":782,"x_min":47,"x_max":735,"o":"m 506 -146 l 276 -146 l 276 -85 l 151 -85 l 151 142 l 276 142 l 276 182 l 151 182 l 151 408 l 276 408 l 276 444 l 47 444 l 47 764 l 276 764 l 276 674 l 506 674 l 506 764 l 735 764 l 735 444 l 506 444 l 506 408 l 631 408 l 631 182 l 506 182 l 506 142 l 631 142 l 631 -85 l 506 -85 l 506 -146 z "},"¦":{"ha":324,"x_min":47,"x_max":276,"o":"m 276 401 l 47 401 l 47 946 l 276 946 l 276 401 m 276 -183 l 47 -183 l 47 363 l 276 363 l 276 -183 z "},"§":{"ha":782,"x_min":47,"x_max":735,"o":"m 583 193 l 276 193 l 276 0 l 47 0 l 47 342 l 199 342 l 199 576 l 506 576 l 506 764 l 735 764 l 735 422 l 583 422 l 583 193 m 468 307 l 468 461 l 314 461 l 314 307 l 468 307 z "},"¨":{"ha":621,"x_min":47,"x_max":574,"o":"m 344 851 l 574 851 l 574 1081 l 344 1081 l 344 851 m 47 851 l 276 851 l 276 1081 l 47 1081 l 47 851 z "},"©":{"ha":368,"x_min":42,"x_max":326,"o":"m 182 897 q 61 832 115 897 q 47 795 53 814 q 42 754 42 776 q 52 702 42 725 q 82 660 63 679 q 131 625 106 638 q 185 613 157 613 q 240 624 213 613 q 286 660 267 636 q 316 702 306 679 q 326 754 326 725 q 288 856 326 814 q 182 897 249 897 m 188 869 q 226 862 206 869 q 265 839 247 854 q 300 754 300 808 q 267 678 300 708 q 185 644 233 644 q 108 678 142 644 q 68 754 68 706 q 107 838 68 807 q 143 861 124 853 q 188 869 163 869 m 218 736 q 185 704 203 704 q 149 757 149 704 q 158 797 149 782 q 185 811 167 811 q 218 783 203 811 l 251 793 q 185 835 236 835 q 135 816 154 835 q 117 754 117 797 q 185 678 117 678 q 226 690 208 678 q 251 725 244 701 l 218 736 z "},"ª":{"ha":782,"x_min":47,"x_max":735,"o":"m 47 764 l 735 764 l 735 0 l 47 0 l 47 475 l 351 475 l 351 289 l 276 289 l 276 229 l 506 229 l 506 535 l 47 535 l 47 764 z "},"«":{"ha":611,"x_min":47,"x_max":564,"o":"m 276 419 l 136 383 l 276 346 l 276 119 l 47 178 l 47 588 l 276 646 l 276 419 m 564 419 l 424 383 l 564 346 l 564 119 l 335 178 l 335 588 l 564 646 l 564 419 z "},"¬":{"ha":488,"x_min":47,"x_max":440,"o":"m 440 154 l 211 154 l 211 268 l 47 268 l 47 497 l 440 497 l 440 154 z "},"­":{"ha":383,"x_min":47,"x_max":336,"o":"m 336 497 l 336 268 l 47 268 l 47 497 l 336 497 z "},"®":{"ha":368,"x_min":42,"x_max":326,"o":"m 182 897 q 61 835 119 897 q 47 797 53 817 q 42 754 42 778 q 81 660 42 699 q 130 626 104 638 q 185 614 156 614 q 240 625 213 614 q 286 660 267 636 q 316 703 306 681 q 326 754 326 726 q 288 856 326 814 q 182 897 249 897 m 188 867 q 241 855 214 868 q 279 818 268 842 q 292 788 288 803 q 297 754 297 774 q 290 713 297 732 q 267 676 283 694 q 185 646 232 646 q 108 676 143 646 q 69 754 69 707 q 107 839 69 811 q 142 860 122 854 q 188 867 163 867 m 124 685 l 154 685 l 154 742 l 160 742 q 183 735 172 742 q 191 724 188 732 q 201 706 194 717 l 214 685 l 256 685 l 240 713 q 215 738 217 731 q 210 741 213 740 q 201 744 207 742 q 246 792 246 753 q 231 822 246 810 q 192 833 217 833 l 124 833 l 124 685 m 154 768 l 154 810 l 179 810 q 208 789 208 810 q 178 768 208 768 l 154 768 z "},"¯":{"ha":631,"x_min":47,"x_max":583,"o":"m 583 535 l 583 764 l 47 764 l 47 535 l 583 535 z "},"°":{"ha":324,"x_min":47,"x_max":276,"o":"m 47 851 l 276 851 l 276 1081 l 47 1081 l 47 851 z "},"±":{"ha":549,"x_min":47,"x_max":501,"o":"m 389 310 l 160 310 l 160 424 l 47 424 l 47 653 l 160 653 l 160 764 l 389 764 l 389 653 l 501 653 l 501 424 l 389 424 l 389 310 m 501 0 l 47 0 l 47 229 l 501 229 l 501 0 z "},"²":{"ha":439,"x_min":47,"x_max":392,"o":"m 392 508 l 392 622 l 163 622 l 163 642 l 392 642 l 392 890 l 78 890 l 78 775 l 276 775 l 276 757 l 47 757 l 47 508 l 392 508 z "},"³":{"ha":419,"x_min":47,"x_max":372,"o":"m 372 508 l 47 508 l 47 622 l 257 622 l 257 642 l 47 642 l 47 757 l 257 757 l 257 775 l 47 775 l 47 890 l 372 890 l 372 508 z "},"´":{"ha":324,"x_min":47,"x_max":276,"o":"m 47 851 l 276 851 l 276 1081 l 47 1081 l 47 851 z "},"µ":{"ha":782,"x_min":47,"x_max":735,"o":"m 276 -183 l 47 -183 l 47 764 l 276 764 l 276 229 l 506 229 l 506 764 l 735 764 l 735 0 l 276 0 l 276 -183 z "},"¶":{"ha":879,"x_min":47,"x_max":832,"o":"m 508 -182 l 279 -182 l 279 229 l 47 229 l 47 764 l 832 764 l 832 535 l 276 535 l 276 458 l 508 458 l 508 -182 m 832 -182 l 603 -182 l 603 458 l 832 458 l 832 -182 z "},"·":{"ha":324,"x_min":47,"x_max":276,"o":"m 276 268 l 47 268 l 47 497 l 276 497 l 276 268 z "},"¸":{"ha":324,"x_min":47,"x_max":276,"o":"m 276 -182 l 47 -182 l 47 14 l 276 14 l 276 -182 z "},"¹":{"ha":363,"x_min":47,"x_max":315,"o":"m 47 508 l 47 622 l 124 622 l 124 775 l 47 775 l 47 890 l 239 890 l 239 622 l 315 622 l 315 508 l 47 508 z "},"º":{"ha":439,"x_min":47,"x_max":392,"o":"m 392 508 l 47 508 l 47 890 l 392 890 l 392 508 m 276 622 l 276 775 l 163 775 l 163 622 l 276 622 z "},"»":{"ha":611,"x_min":47,"x_max":564,"o":"m 335 419 l 475 383 l 335 346 l 335 119 l 564 178 l 564 588 l 335 646 l 335 419 m 47 419 l 188 383 l 47 346 l 47 119 l 276 178 l 276 588 l 47 646 l 47 419 z "},"¼":{"ha":781,"x_min":47,"x_max":733,"o":"m 504 0 l 275 0 l 275 297 l 47 297 l 47 411 l 124 411 l 124 564 l 47 564 l 47 679 l 239 679 l 239 411 l 275 411 l 275 764 l 504 764 l 504 335 l 618 335 l 618 468 l 733 468 l 733 86 l 618 86 l 618 219 l 504 219 l 504 0 z "},"½":{"ha":781,"x_min":47,"x_max":733,"o":"m 504 764 l 504 468 l 733 468 l 733 219 l 504 219 l 504 200 l 733 200 l 733 86 l 504 86 l 504 0 l 275 0 l 275 297 l 47 297 l 47 411 l 124 411 l 124 564 l 47 564 l 47 679 l 239 679 l 239 411 l 275 411 l 275 764 l 504 764 m 618 353 l 504 353 l 504 335 l 618 335 l 618 353 z "},"¾":{"ha":763,"x_min":47,"x_max":715,"o":"m 486 0 l 257 0 l 257 297 l 47 297 l 47 411 l 257 411 l 257 431 l 47 431 l 47 546 l 257 546 l 257 564 l 47 564 l 47 679 l 257 679 l 257 764 l 486 764 l 486 335 l 600 335 l 600 468 l 715 468 l 715 86 l 600 86 l 600 219 l 486 219 l 486 0 z "},"¿":{"ha":782,"x_min":47,"x_max":735,"o":"m 47 496 l 599 496 l 599 267 l 276 267 l 276 229 l 735 229 l 735 0 l 47 0 l 47 496 m 369 764 l 599 764 l 599 535 l 369 535 l 369 764 z "},"À":{"ha":782,"x_min":47,"x_max":735,"o":"m 128 851 l 357 851 l 357 1081 l 128 1081 l 128 851 m 506 0 l 735 0 l 735 764 l 47 764 l 47 535 l 506 535 l 506 458 l 47 458 l 47 0 l 276 0 l 276 229 l 506 229 l 506 0 z "},"Á":{"ha":782,"x_min":47,"x_max":735,"o":"m 425 851 l 654 851 l 654 1081 l 425 1081 l 425 851 m 506 0 l 735 0 l 735 764 l 47 764 l 47 535 l 506 535 l 506 458 l 47 458 l 47 0 l 276 0 l 276 229 l 506 229 l 506 0 z "},"Â":{"ha":782,"x_min":47,"x_max":735,"o":"m 128 851 l 354 851 l 390 992 l 428 851 l 654 851 l 596 1081 l 186 1081 l 128 851 m 506 0 l 735 0 l 735 764 l 47 764 l 47 535 l 506 535 l 506 458 l 47 458 l 47 0 l 276 0 l 276 229 l 506 229 l 506 0 z "},"Ã":{"ha":782,"x_min":47,"x_max":735,"o":"m 128 1081 l 128 851 l 654 851 l 654 1081 l 128 1081 m 506 0 l 735 0 l 735 764 l 47 764 l 47 535 l 506 535 l 506 458 l 47 458 l 47 0 l 276 0 l 276 229 l 506 229 l 506 0 z "},"Ä":{"ha":782,"x_min":47,"x_max":735,"o":"m 425 851 l 654 851 l 654 1081 l 425 1081 l 425 851 m 128 851 l 357 851 l 357 1081 l 128 1081 l 128 851 m 506 0 l 735 0 l 735 764 l 47 764 l 47 535 l 506 535 l 506 458 l 47 458 l 47 0 l 276 0 l 276 229 l 506 229 l 506 0 z "},"Å":{"ha":782,"x_min":47,"x_max":735,"o":"m 276 851 l 506 851 l 506 1081 l 276 1081 l 276 851 m 506 0 l 735 0 l 735 764 l 47 764 l 47 535 l 506 535 l 506 458 l 47 458 l 47 0 l 276 0 l 276 229 l 506 229 l 506 0 z "},"Æ":{"ha":1240,"x_min":47,"x_max":1193,"o":"m 1193 0 l 506 0 l 506 229 l 276 229 l 276 0 l 47 0 l 47 458 l 506 458 l 506 535 l 47 535 l 47 764 l 1193 764 l 1193 289 l 889 289 l 889 475 l 964 475 l 964 535 l 735 535 l 735 229 l 1193 229 l 1193 0 z "},"Ç":{"ha":782,"x_min":47,"x_max":735,"o":"m 506 -182 l 276 -182 l 276 0 l 47 0 l 47 764 l 735 764 l 735 475 l 506 475 l 506 535 l 276 535 l 276 229 l 735 229 l 735 0 l 506 0 l 506 -182 z "},"È":{"ha":782,"x_min":47,"x_max":735,"o":"m 357 851 l 128 851 l 128 1081 l 357 1081 l 357 851 m 276 229 l 735 229 l 735 0 l 47 0 l 47 764 l 735 764 l 735 306 l 506 306 l 506 535 l 276 535 l 276 229 z "},"É":{"ha":782,"x_min":47,"x_max":735,"o":"m 654 851 l 425 851 l 425 1081 l 654 1081 l 654 851 m 276 229 l 735 229 l 735 0 l 47 0 l 47 764 l 735 764 l 735 306 l 506 306 l 506 535 l 276 535 l 276 229 z "},"Ê":{"ha":782,"x_min":47,"x_max":735,"o":"m 354 851 l 128 851 l 186 1081 l 596 1081 l 654 851 l 428 851 l 390 992 l 354 851 m 276 229 l 735 229 l 735 0 l 47 0 l 47 764 l 735 764 l 735 306 l 506 306 l 506 535 l 276 535 l 276 229 z "},"Ë":{"ha":782,"x_min":47,"x_max":735,"o":"m 357 851 l 128 851 l 128 1081 l 357 1081 l 357 851 m 654 851 l 425 851 l 425 1081 l 654 1081 l 654 851 m 276 229 l 735 229 l 735 0 l 47 0 l 47 764 l 735 764 l 735 306 l 506 306 l 506 535 l 276 535 l 276 229 z "},"Ì":{"ha":446,"x_min":-40,"x_max":399,"o":"m -40 851 l -40 1081 l 189 1081 l 189 851 l -40 851 m 399 764 l 399 0 l 169 0 l 169 535 l 47 535 l 47 764 l 399 764 z "},"Í":{"ha":446,"x_min":47,"x_max":486,"o":"m 257 851 l 257 1081 l 486 1081 l 486 851 l 257 851 m 399 764 l 399 0 l 169 0 l 169 535 l 47 535 l 47 764 l 399 764 z "},"Î":{"ha":446,"x_min":-40,"x_max":486,"o":"m 186 851 l 222 992 l 260 851 l 486 851 l 428 1081 l 18 1081 l -40 851 l 186 851 m 399 0 l 399 764 l 47 764 l 47 535 l 169 535 l 169 0 l 399 0 z "},"Ï":{"ha":446,"x_min":-40,"x_max":486,"o":"m 257 851 l 257 1081 l 486 1081 l 486 851 l 257 851 m -40 851 l -40 1081 l 189 1081 l 189 851 l -40 851 m 399 764 l 399 0 l 169 0 l 169 535 l 47 535 l 47 764 l 399 764 z "},"Ð":{"ha":897,"x_min":47,"x_max":850,"o":"m 850 764 l 163 764 l 163 497 l 47 497 l 47 268 l 163 268 l 163 0 l 697 0 l 850 153 l 850 764 m 621 279 l 574 229 l 392 229 l 392 535 l 621 535 l 621 279 z "},"Ñ":{"ha":782,"x_min":47,"x_max":735,"o":"m 128 851 l 654 851 l 654 1081 l 128 1081 l 128 851 m 506 485 l 506 0 l 735 0 l 735 611 l 582 764 l 47 764 l 47 0 l 276 0 l 276 535 l 458 535 l 506 485 z "},"Ò":{"ha":782,"x_min":47,"x_max":735,"o":"m 128 851 l 357 851 l 357 1081 l 128 1081 l 128 851 m 735 0 l 735 764 l 47 764 l 47 0 l 735 0 m 506 229 l 276 229 l 276 535 l 506 535 l 506 229 z "},"Ó":{"ha":782,"x_min":47,"x_max":735,"o":"m 425 851 l 654 851 l 654 1081 l 425 1081 l 425 851 m 735 0 l 735 764 l 47 764 l 47 0 l 735 0 m 506 229 l 276 229 l 276 535 l 506 535 l 506 229 z "},"Ô":{"ha":782,"x_min":47,"x_max":735,"o":"m 128 851 l 354 851 l 390 992 l 428 851 l 654 851 l 596 1081 l 186 1081 l 128 851 m 735 0 l 735 764 l 47 764 l 47 0 l 735 0 m 506 229 l 276 229 l 276 535 l 506 535 l 506 229 z "},"Õ":{"ha":782,"x_min":47,"x_max":735,"o":"m 735 0 l 47 0 l 47 764 l 735 764 l 735 0 m 128 851 l 128 1081 l 654 1081 l 654 851 l 128 851 m 506 229 l 506 535 l 276 535 l 276 229 l 506 229 z "},"Ö":{"ha":782,"x_min":47,"x_max":735,"o":"m 425 851 l 654 851 l 654 1081 l 425 1081 l 425 851 m 128 851 l 357 851 l 357 1081 l 128 1081 l 128 851 m 735 0 l 735 764 l 47 764 l 47 0 l 735 0 m 506 229 l 276 229 l 276 535 l 506 535 l 506 229 z "},"×":{"ha":567,"x_min":42,"x_max":525,"o":"m 203 139 l 42 301 l 122 382 l 42 461 l 204 624 l 283 543 l 363 622 l 525 460 l 446 382 l 525 301 l 364 140 l 283 219 l 203 139 z "},"Ø":{"ha":782,"x_min":47,"x_max":735,"o":"m 47 0 l 47 764 l 735 764 l 735 0 l 47 0 m 276 229 l 392 229 l 392 381 l 276 381 l 276 229 m 506 535 l 392 535 l 392 382 l 506 382 l 506 535 z "},"Ù":{"ha":782,"x_min":47,"x_max":735,"o":"m 357 1081 l 128 1081 l 128 851 l 357 851 l 357 1081 m 276 283 l 276 764 l 47 764 l 47 153 l 200 0 l 735 0 l 735 764 l 506 764 l 506 229 l 324 229 l 276 283 z "},"Ú":{"ha":782,"x_min":47,"x_max":735,"o":"m 654 1081 l 425 1081 l 425 851 l 654 851 l 654 1081 m 276 283 l 276 764 l 47 764 l 47 153 l 200 0 l 735 0 l 735 764 l 506 764 l 506 229 l 324 229 l 276 283 z "},"Û":{"ha":782,"x_min":47,"x_max":735,"o":"m 390 992 l 428 851 l 654 851 l 596 1081 l 186 1081 l 128 851 l 354 851 l 390 992 m 276 283 l 276 764 l 47 764 l 47 153 l 200 0 l 735 0 l 735 764 l 506 764 l 506 229 l 324 229 l 276 283 z "},"Ü":{"ha":782,"x_min":47,"x_max":735,"o":"m 654 1081 l 425 1081 l 425 851 l 654 851 l 654 1081 m 357 1081 l 128 1081 l 128 851 l 357 851 l 357 1081 m 276 283 l 276 764 l 47 764 l 47 153 l 200 0 l 735 0 l 735 764 l 506 764 l 506 229 l 324 229 l 276 283 z "},"Ý":{"ha":782,"x_min":47,"x_max":735,"o":"m 425 851 l 425 1081 l 654 1081 l 654 851 l 425 851 m 506 0 l 276 0 l 276 229 l 47 229 l 47 764 l 276 764 l 276 458 l 506 458 l 506 764 l 735 764 l 735 229 l 506 229 l 506 0 z "},"Þ":{"ha":782,"x_min":47,"x_max":735,"o":"m 506 419 l 47 419 l 47 764 l 276 764 l 276 649 l 735 649 l 735 114 l 276 114 l 276 0 l 47 0 l 47 343 l 506 343 l 506 419 z "},"ß":{"ha":782,"x_min":47,"x_max":735,"o":"m 631 764 l 631 497 l 735 497 l 735 0 l 318 0 l 318 229 l 506 229 l 506 268 l 318 268 l 318 497 l 401 497 l 401 535 l 276 535 l 276 0 l 47 0 l 47 764 l 631 764 z "},"à":{"ha":782,"x_min":47,"x_max":735,"o":"m 128 851 l 357 851 l 357 1081 l 128 1081 l 128 851 m 429 0 l 429 229 l 276 229 l 276 535 l 506 535 l 506 0 l 735 0 l 735 764 l 47 764 l 47 0 l 429 0 z "},"á":{"ha":782,"x_min":47,"x_max":735,"o":"m 425 851 l 654 851 l 654 1081 l 425 1081 l 425 851 m 429 0 l 429 229 l 276 229 l 276 535 l 506 535 l 506 0 l 735 0 l 735 764 l 47 764 l 47 0 l 429 0 z "},"â":{"ha":782,"x_min":47,"x_max":735,"o":"m 128 851 l 354 851 l 390 992 l 428 851 l 654 851 l 596 1081 l 186 1081 l 128 851 m 429 0 l 429 229 l 276 229 l 276 535 l 506 535 l 506 0 l 735 0 l 735 764 l 47 764 l 47 0 l 429 0 z "},"ã":{"ha":782,"x_min":47,"x_max":735,"o":"m 128 1081 l 128 851 l 654 851 l 654 1081 l 128 1081 m 429 0 l 429 229 l 276 229 l 276 535 l 506 535 l 506 0 l 735 0 l 735 764 l 47 764 l 47 0 l 429 0 z "},"ä":{"ha":782,"x_min":47,"x_max":735,"o":"m 425 851 l 654 851 l 654 1081 l 425 1081 l 425 851 m 128 851 l 357 851 l 357 1081 l 128 1081 l 128 851 m 429 0 l 429 229 l 276 229 l 276 535 l 506 535 l 506 0 l 735 0 l 735 764 l 47 764 l 47 0 l 429 0 z "},"å":{"ha":782,"x_min":47,"x_max":735,"o":"m 276 851 l 506 851 l 506 1081 l 276 1081 l 276 851 m 429 0 l 429 229 l 276 229 l 276 535 l 506 535 l 506 0 l 735 0 l 735 764 l 47 764 l 47 0 l 429 0 z "},"æ":{"ha":1240,"x_min":47,"x_max":1193,"o":"m 47 0 l 47 764 l 1193 764 l 1193 306 l 964 306 l 964 535 l 735 535 l 735 229 l 1193 229 l 1193 0 l 506 0 l 506 535 l 276 535 l 276 229 l 429 229 l 429 0 l 47 0 z "},"ç":{"ha":706,"x_min":47,"x_max":658,"o":"m 47 0 l 47 764 l 658 764 l 658 535 l 276 535 l 276 229 l 658 229 l 658 0 l 467 0 l 467 -182 l 238 -182 l 238 0 l 47 0 z "},"è":{"ha":782,"x_min":47,"x_max":735,"o":"m 357 851 l 128 851 l 128 1081 l 357 1081 l 357 851 m 735 0 l 47 0 l 47 764 l 735 764 l 735 289 l 431 289 l 431 475 l 506 475 l 506 535 l 276 535 l 276 229 l 735 229 l 735 0 z "},"é":{"ha":782,"x_min":47,"x_max":735,"o":"m 654 851 l 425 851 l 425 1081 l 654 1081 l 654 851 m 735 0 l 47 0 l 47 764 l 735 764 l 735 289 l 431 289 l 431 475 l 506 475 l 506 535 l 276 535 l 276 229 l 735 229 l 735 0 z "},"ê":{"ha":782,"x_min":47,"x_max":735,"o":"m 354 851 l 128 851 l 186 1081 l 596 1081 l 654 851 l 428 851 l 390 992 l 354 851 m 735 0 l 47 0 l 47 764 l 735 764 l 735 289 l 431 289 l 431 475 l 506 475 l 506 535 l 276 535 l 276 229 l 735 229 l 735 0 z "},"ë":{"ha":782,"x_min":47,"x_max":735,"o":"m 357 851 l 128 851 l 128 1081 l 357 1081 l 357 851 m 654 851 l 425 851 l 425 1081 l 654 1081 l 654 851 m 735 0 l 47 0 l 47 764 l 735 764 l 735 289 l 431 289 l 431 475 l 506 475 l 506 535 l 276 535 l 276 229 l 735 229 l 735 0 z "},"ì":{"ha":324,"x_min":-101,"x_max":276,"o":"m 128 851 l -101 851 l -101 1081 l 128 1081 l 128 851 m 276 0 l 47 0 l 47 764 l 276 764 l 276 0 z "},"í":{"ha":324,"x_min":47,"x_max":425,"o":"m 425 851 l 196 851 l 196 1081 l 425 1081 l 425 851 m 276 0 l 47 0 l 47 764 l 276 764 l 276 0 z "},"î":{"ha":324,"x_min":-101,"x_max":425,"o":"m 125 851 l -101 851 l -43 1081 l 367 1081 l 425 851 l 199 851 l 161 992 l 125 851 m 276 0 l 47 0 l 47 764 l 276 764 l 276 0 z "},"ï":{"ha":324,"x_min":-101,"x_max":425,"o":"m 128 851 l -101 851 l -101 1081 l 128 1081 l 128 851 m 425 851 l 196 851 l 196 1081 l 425 1081 l 425 851 m 276 0 l 47 0 l 47 764 l 276 764 l 276 0 z "},"ð":{"ha":782,"x_min":47,"x_max":735,"o":"m 47 0 l 47 497 l 506 497 l 506 535 l 47 535 l 47 764 l 276 764 l 276 982 l 506 982 l 506 764 l 735 764 l 735 0 l 47 0 m 276 229 l 506 229 l 506 268 l 276 268 l 276 229 z "},"ñ":{"ha":782,"x_min":47,"x_max":735,"o":"m 735 0 l 506 0 l 506 535 l 276 535 l 276 0 l 47 0 l 47 764 l 735 764 l 735 0 m 128 851 l 128 1081 l 654 1081 l 654 851 l 128 851 z "},"ò":{"ha":782,"x_min":47,"x_max":735,"o":"m 128 851 l 357 851 l 357 1081 l 128 1081 l 128 851 m 735 0 l 735 764 l 47 764 l 47 0 l 735 0 m 506 229 l 276 229 l 276 535 l 506 535 l 506 229 z "},"ó":{"ha":782,"x_min":47,"x_max":735,"o":"m 425 851 l 654 851 l 654 1081 l 425 1081 l 425 851 m 735 0 l 735 764 l 47 764 l 47 0 l 735 0 m 506 229 l 276 229 l 276 535 l 506 535 l 506 229 z "},"ô":{"ha":782,"x_min":47,"x_max":735,"o":"m 128 851 l 354 851 l 390 992 l 428 851 l 654 851 l 596 1081 l 186 1081 l 128 851 m 735 0 l 735 764 l 47 764 l 47 0 l 735 0 m 506 229 l 276 229 l 276 535 l 506 535 l 506 229 z "},"õ":{"ha":782,"x_min":47,"x_max":735,"o":"m 735 0 l 47 0 l 47 764 l 735 764 l 735 0 m 128 851 l 128 1081 l 654 1081 l 654 851 l 128 851 m 506 229 l 506 535 l 276 535 l 276 229 l 506 229 z "},"ö":{"ha":782,"x_min":47,"x_max":735,"o":"m 425 851 l 654 851 l 654 1081 l 425 1081 l 425 851 m 128 851 l 357 851 l 357 1081 l 128 1081 l 128 851 m 735 0 l 735 764 l 47 764 l 47 0 l 735 0 m 506 229 l 276 229 l 276 535 l 506 535 l 506 229 z "},"÷":{"ha":472,"x_min":42,"x_max":431,"o":"m 42 0 l 275 0 l 431 764 l 197 764 l 42 0 z "},"ø":{"ha":782,"x_min":47,"x_max":735,"o":"m 735 0 l 735 764 l 47 764 l 47 0 l 735 0 m 506 229 l 390 229 l 390 381 l 506 381 l 506 229 m 276 535 l 390 535 l 390 382 l 276 382 l 276 535 z "},"ù":{"ha":782,"x_min":47,"x_max":735,"o":"m 357 851 l 128 851 l 128 1081 l 357 1081 l 357 851 m 47 0 l 47 764 l 276 764 l 276 229 l 506 229 l 506 764 l 735 764 l 735 0 l 47 0 z "},"ú":{"ha":782,"x_min":47,"x_max":735,"o":"m 654 851 l 425 851 l 425 1081 l 654 1081 l 654 851 m 47 0 l 47 764 l 276 764 l 276 229 l 506 229 l 506 764 l 735 764 l 735 0 l 47 0 z "},"û":{"ha":782,"x_min":47,"x_max":735,"o":"m 47 0 l 47 764 l 276 764 l 276 229 l 506 229 l 506 764 l 735 764 l 735 0 l 47 0 m 354 851 l 128 851 l 186 1081 l 596 1081 l 654 851 l 428 851 l 390 992 l 354 851 z "},"ü":{"ha":782,"x_min":47,"x_max":735,"o":"m 357 851 l 128 851 l 128 1081 l 357 1081 l 357 851 m 654 851 l 425 851 l 425 1081 l 654 1081 l 654 851 m 47 0 l 47 764 l 276 764 l 276 229 l 506 229 l 506 764 l 735 764 l 735 0 l 47 0 z "},"ý":{"ha":782,"x_min":47,"x_max":735,"o":"m 654 851 l 425 851 l 425 1081 l 654 1081 l 654 851 m 735 0 l 47 0 l 47 229 l 506 229 l 506 306 l 47 306 l 47 764 l 276 764 l 276 535 l 506 535 l 506 764 l 735 764 l 735 0 z "},"þ":{"ha":706,"x_min":47,"x_max":658,"o":"m 276 764 l 658 764 l 658 0 l 276 0 l 276 -182 l 47 -182 l 47 229 l 429 229 l 429 535 l 47 535 l 47 946 l 276 946 l 276 764 z "},"ÿ":{"ha":782,"x_min":47,"x_max":735,"o":"m 357 851 l 128 851 l 128 1081 l 357 1081 l 357 851 m 654 851 l 425 851 l 425 1081 l 654 1081 l 654 851 m 735 0 l 47 0 l 47 229 l 506 229 l 506 306 l 47 306 l 47 764 l 276 764 l 276 535 l 506 535 l 506 764 l 735 764 l 735 0 z "}}}
